<svg xmlns="http://www.w3.org/2000/svg" version="1.1" xmlns:xlink="http://www.w3.org/1999/xlink" xmlns:svgjs="http://svgjs.dev/svgjs" viewBox="0 0 800 800"><defs><linearGradient x1="50%" y1="0%" x2="50%" y2="100%" id="ffflurry-grad" gradientTransform="rotate(270)"><stop stop-color="#ffffff" stop-opacity="1" offset="0%"></stop><stop stop-color="hsl(195, 100%, 50%)" stop-opacity="1" offset="45%"></stop><stop stop-color="hsl(355, 71%, 47%)" stop-opacity="1" offset="100%"></stop></linearGradient></defs><rect width="100%" height="100%" fill="#ffffff"></rect><g fill="url(#ffflurry-grad)"><rect width="215" height="3" x="467.5" y="272.5" rx="1.5" transform="rotate(38, 575, 274)" opacity="0.18"></rect><rect width="109" height="3" x="534.5" y="115.5" rx="1.5" transform="rotate(38, 589, 117)" opacity="0.89"></rect><rect width="197" height="3" x="388.5" y="242.5" rx="1.5" transform="rotate(38, 487, 244)" opacity="0.51"></rect><rect width="107" height="3" x="22.5" y="461.5" rx="1.5" transform="rotate(38, 76, 463)" opacity="0.85"></rect><rect width="280" height="3" x="-106" y="240.5" rx="1.5" transform="rotate(38, 34, 242)" opacity="0.61"></rect><rect width="71" height="3" x="565.5" y="624.5" rx="1.5" transform="rotate(38, 601, 626)" opacity="0.90"></rect><rect width="107" height="3" x="15.5" y="43.5" rx="1.5" transform="rotate(38, 69, 45)" opacity="0.44"></rect><rect width="149" height="3" x="354.5" y="34.5" rx="1.5" transform="rotate(38, 429, 36)" opacity="0.30"></rect><rect width="97" height="3" x="357.5" y="754.5" rx="1.5" transform="rotate(38, 406, 756)" opacity="0.67"></rect><rect width="213" height="3" x="635.5" y="649.5" rx="1.5" transform="rotate(38, 742, 651)" opacity="0.84"></rect><rect width="260" height="3" x="614" y="225.5" rx="1.5" transform="rotate(38, 744, 227)" opacity="0.62"></rect><rect width="63" height="3" x="146.5" y="680.5" rx="1.5" transform="rotate(38, 178, 682)" opacity="0.80"></rect><rect width="61" height="3" x="553.5" y="195.5" rx="1.5" transform="rotate(38, 584, 197)" opacity="0.65"></rect><rect width="252" height="3" x="626" y="355.5" rx="1.5" transform="rotate(38, 752, 357)" opacity="0.52"></rect><rect width="206" height="3" x="171" y="748.5" rx="1.5" transform="rotate(38, 274, 750)" opacity="0.65"></rect><rect width="131" height="3" x="565.5" y="733.5" rx="1.5" transform="rotate(38, 631, 735)" opacity="0.72"></rect><rect width="282" height="3" x="7" y="238.5" rx="1.5" transform="rotate(38, 148, 240)" opacity="0.80"></rect><rect width="230" height="3" x="255" y="316.5" rx="1.5" transform="rotate(38, 370, 318)" opacity="0.88"></rect><rect width="224" height="3" x="207" y="639.5" rx="1.5" transform="rotate(38, 319, 641)" opacity="0.74"></rect><rect width="272" height="3" x="568" y="556.5" rx="1.5" transform="rotate(38, 704, 558)" opacity="0.08"></rect><rect width="94" height="3" x="209" y="187.5" rx="1.5" transform="rotate(38, 256, 189)" opacity="0.26"></rect><rect width="152" height="3" x="564" y="434.5" rx="1.5" transform="rotate(38, 640, 436)" opacity="0.57"></rect><rect width="330" height="3" x="389" y="521.5" rx="1.5" transform="rotate(38, 554, 523)" opacity="0.87"></rect><rect width="235" height="3" x="140.5" y="531.5" rx="1.5" transform="rotate(38, 258, 533)" opacity="0.55"></rect><rect width="107" height="3" x="164.5" y="88.5" rx="1.5" transform="rotate(38, 218, 90)" opacity="0.46"></rect><rect width="121" height="3" x="397.5" y="404.5" rx="1.5" transform="rotate(38, 458, 406)" opacity="0.68"></rect><rect width="28" height="3" x="181" y="24.5" rx="1.5" transform="rotate(38, 195, 26)" opacity="0.09"></rect><rect width="227" height="3" x="125.5" y="422.5" rx="1.5" transform="rotate(38, 239, 424)" opacity="0.41"></rect><rect width="99" height="3" x="326.5" y="216.5" rx="1.5" transform="rotate(38, 376, 218)" opacity="0.93"></rect><rect width="72" height="3" x="493" y="24.5" rx="1.5" transform="rotate(38, 529, 26)" opacity="0.10"></rect><rect width="256" height="3" x="527" y="314.5" rx="1.5" transform="rotate(38, 655, 316)" opacity="0.12"></rect><rect width="252" height="3" x="-59" y="694.5" rx="1.5" transform="rotate(38, 67, 696)" opacity="0.72"></rect><rect width="317" height="3" x="588.5" y="475.5" rx="1.5" transform="rotate(38, 747, 477)" opacity="0.60"></rect><rect width="156" height="3" x="247" y="46.5" rx="1.5" transform="rotate(38, 325, 48)" opacity="0.99"></rect><rect width="222" height="3" x="221" y="525.5" rx="1.5" transform="rotate(38, 332, 527)" opacity="0.18"></rect><rect width="440" height="3" x="5" y="315.5" rx="1.5" transform="rotate(38, 225, 317)" opacity="0.73"></rect><rect width="137" height="3" x="594.5" y="170.5" rx="1.5" transform="rotate(38, 663, 172)" opacity="0.92"></rect><rect width="122" height="3" x="426" y="71.5" rx="1.5" transform="rotate(38, 487, 73)" opacity="0.19"></rect><rect width="55" height="3" x="112.5" y="132.5" rx="1.5" transform="rotate(38, 140, 134)" opacity="0.22"></rect><rect width="375" height="3" x="-15.5" y="564.5" rx="1.5" transform="rotate(38, 172, 566)" opacity="0.45"></rect><rect width="213" height="3" x="343.5" y="546.5" rx="1.5" transform="rotate(38, 450, 548)" opacity="0.14"></rect><rect width="248" height="3" x="-92" y="125.5" rx="1.5" transform="rotate(38, 32, 127)" opacity="0.15"></rect><rect width="73" height="3" x="701.5" y="752.5" rx="1.5" transform="rotate(38, 738, 754)" opacity="0.23"></rect><rect width="374" height="3" x="-114" y="335.5" rx="1.5" transform="rotate(38, 73, 337)" opacity="0.83"></rect><rect width="32" height="3" x="81" y="767.5" rx="1.5" transform="rotate(38, 97, 769)" opacity="0.66"></rect><rect width="200" height="3" x="421" y="136.5" rx="1.5" transform="rotate(38, 521, 138)" opacity="0.66"></rect><rect width="211" height="3" x="647.5" y="80.5" rx="1.5" transform="rotate(38, 753, 82)" opacity="0.47"></rect><rect width="300" height="3" x="518" y="47.5" rx="1.5" transform="rotate(38, 668, 49)" opacity="0.51"></rect><rect width="102" height="3" x="325" y="457.5" rx="1.5" transform="rotate(38, 376, 459)" opacity="0.19"></rect><rect width="226" height="3" x="-34" y="181.5" rx="1.5" transform="rotate(38, 79, 183)" opacity="0.46"></rect><rect width="125" height="3" x="468.5" y="741.5" rx="1.5" transform="rotate(38, 531, 743)" opacity="0.76"></rect><rect width="84" height="3" x="2" y="605.5" rx="1.5" transform="rotate(38, 44, 607)" opacity="0.47"></rect><rect width="190" height="3" x="357" y="658.5" rx="1.5" transform="rotate(38, 452, 660)" opacity="0.85"></rect><rect width="71" height="3" x="507.5" y="365.5" rx="1.5" transform="rotate(38, 543, 367)" opacity="0.47"></rect><rect width="172" height="3" x="361" y="141.5" rx="1.5" transform="rotate(38, 447, 143)" opacity="0.19"></rect><rect width="65" height="3" x="322.5" y="128.5" rx="1.5" transform="rotate(38, 355, 130)" opacity="0.08"></rect><rect width="119" height="3" x="529.5" y="43.5" rx="1.5" transform="rotate(38, 589, 45)" opacity="0.40"></rect></g></svg>