<svg xmlns="http://www.w3.org/2000/svg" version="1.1" xmlns:xlink="http://www.w3.org/1999/xlink" xmlns:svgjs="http://svgjs.dev/svgjs" viewBox="0 0 800 800"><defs><linearGradient x1="50%" y1="0%" x2="50%" y2="100%" id="ffflurry-grad" gradientTransform="rotate(270)"><stop stop-color="#ffffff" stop-opacity="1" offset="0%"></stop><stop stop-color="hsl(195, 100%, 50%)" stop-opacity="1" offset="45%"></stop><stop stop-color="hsl(185, 84%, 42%)" stop-opacity="1" offset="100%"></stop></linearGradient></defs><rect width="100%" height="100%" fill="#ffffff"></rect><g fill="url(#ffflurry-grad)"><rect width="309" height="3" x="83.5" y="684.5" rx="1.5" transform="rotate(43, 238, 686)" opacity="0.93"></rect><rect width="141" height="3" x="292.5" y="408.5" rx="1.5" transform="rotate(43, 363, 410)" opacity="0.51"></rect><rect width="391" height="3" x="238.5" y="674.5" rx="1.5" transform="rotate(43, 434, 676)" opacity="0.57"></rect><rect width="400" height="3" x="198" y="50.5" rx="1.5" transform="rotate(43, 398, 52)" opacity="0.07"></rect><rect width="450" height="3" x="31" y="56.5" rx="1.5" transform="rotate(43, 256, 58)" opacity="0.54"></rect><rect width="111" height="3" x="294.5" y="671.5" rx="1.5" transform="rotate(43, 350, 673)" opacity="0.48"></rect><rect width="322" height="3" x="427" y="188.5" rx="1.5" transform="rotate(43, 588, 190)" opacity="0.91"></rect><rect width="228" height="3" x="341" y="423.5" rx="1.5" transform="rotate(43, 455, 425)" opacity="0.27"></rect><rect width="401" height="3" x="-144.5" y="379.5" rx="1.5" transform="rotate(43, 56, 381)" opacity="0.57"></rect><rect width="95" height="3" x="690.5" y="254.5" rx="1.5" transform="rotate(43, 738, 256)" opacity="0.87"></rect><rect width="69" height="3" x="506.5" y="37.5" rx="1.5" transform="rotate(43, 541, 39)" opacity="0.63"></rect><rect width="67" height="3" x="677.5" y="749.5" rx="1.5" transform="rotate(43, 711, 751)" opacity="0.26"></rect><rect width="199" height="3" x="176.5" y="349.5" rx="1.5" transform="rotate(43, 276, 351)" opacity="0.89"></rect><rect width="44" height="3" x="22" y="40.5" rx="1.5" transform="rotate(43, 44, 42)" opacity="0.93"></rect><rect width="46" height="3" x="189" y="233.5" rx="1.5" transform="rotate(43, 212, 235)" opacity="0.34"></rect><rect width="191" height="3" x="359.5" y="231.5" rx="1.5" transform="rotate(43, 455, 233)" opacity="0.29"></rect><rect width="262" height="3" x="235" y="154.5" rx="1.5" transform="rotate(43, 366, 156)" opacity="0.31"></rect><rect width="359" height="3" x="371.5" y="305.5" rx="1.5" transform="rotate(43, 551, 307)" opacity="0.67"></rect><rect width="331" height="3" x="401.5" y="435.5" rx="1.5" transform="rotate(43, 567, 437)" opacity="0.64"></rect><rect width="369" height="3" x="-43.5" y="47.5" rx="1.5" transform="rotate(43, 141, 49)" opacity="0.91"></rect><rect width="224" height="3" x="637" y="632.5" rx="1.5" transform="rotate(43, 749, 634)" opacity="0.67"></rect><rect width="93" height="3" x="616.5" y="222.5" rx="1.5" transform="rotate(43, 663, 224)" opacity="0.60"></rect><rect width="204" height="3" x="178" y="624.5" rx="1.5" transform="rotate(43, 280, 626)" opacity="0.45"></rect><rect width="112" height="3" x="467" y="671.5" rx="1.5" transform="rotate(43, 523, 673)" opacity="0.68"></rect><rect width="192" height="3" x="32" y="529.5" rx="1.5" transform="rotate(43, 128, 531)" opacity="0.99"></rect><rect width="394" height="3" x="520" y="344.5" rx="1.5" transform="rotate(43, 717, 346)" opacity="0.17"></rect><rect width="126" height="3" x="247" y="724.5" rx="1.5" transform="rotate(43, 310, 726)" opacity="0.81"></rect><rect width="234" height="3" x="132" y="554.5" rx="1.5" transform="rotate(43, 249, 556)" opacity="0.42"></rect><rect width="289" height="3" x="405.5" y="763.5" rx="1.5" transform="rotate(43, 550, 765)" opacity="0.62"></rect><rect width="288" height="3" x="91" y="465.5" rx="1.5" transform="rotate(43, 235, 467)" opacity="0.62"></rect><rect width="159" height="3" x="-42.5" y="130.5" rx="1.5" transform="rotate(43, 37, 132)" opacity="0.89"></rect><rect width="209" height="3" x="58.5" y="648.5" rx="1.5" transform="rotate(43, 163, 650)" opacity="0.27"></rect><rect width="198" height="3" x="-61" y="524.5" rx="1.5" transform="rotate(43, 38, 526)" opacity="0.49"></rect><rect width="212" height="3" x="9" y="234.5" rx="1.5" transform="rotate(43, 115, 236)" opacity="0.55"></rect><rect width="349" height="3" x="-14.5" y="397.5" rx="1.5" transform="rotate(43, 160, 399)" opacity="0.12"></rect><rect width="274" height="3" x="618" y="144.5" rx="1.5" transform="rotate(43, 755, 146)" opacity="0.64"></rect><rect width="400" height="3" x="528" y="451.5" rx="1.5" transform="rotate(43, 728, 453)" opacity="0.18"></rect><rect width="157" height="3" x="494.5" y="574.5" rx="1.5" transform="rotate(43, 573, 576)" opacity="0.66"></rect><rect width="107" height="3" x="256.5" y="774.5" rx="1.5" transform="rotate(43, 310, 776)" opacity="0.39"></rect><rect width="422" height="3" x="-162" y="750.5" rx="1.5" transform="rotate(43, 49, 752)" opacity="0.30"></rect><rect width="142" height="3" x="58" y="139.5" rx="1.5" transform="rotate(43, 129, 141)" opacity="0.73"></rect><rect width="129" height="3" x="-27.5" y="246.5" rx="1.5" transform="rotate(43, 37, 248)" opacity="0.99"></rect><rect width="62" height="3" x="318" y="273.5" rx="1.5" transform="rotate(43, 349, 275)" opacity="0.12"></rect><rect width="86" height="3" x="182" y="759.5" rx="1.5" transform="rotate(43, 225, 761)" opacity="0.32"></rect><rect width="196" height="3" x="368" y="562.5" rx="1.5" transform="rotate(43, 466, 564)" opacity="0.45"></rect><rect width="213" height="3" x="36.5" y="751.5" rx="1.5" transform="rotate(43, 143, 753)" opacity="0.63"></rect><rect width="281" height="3" x="34.5" y="310.5" rx="1.5" transform="rotate(43, 175, 312)" opacity="0.58"></rect><rect width="242" height="3" x="-63" y="648.5" rx="1.5" transform="rotate(43, 58, 650)" opacity="0.31"></rect><rect width="224" height="3" x="146" y="164.5" rx="1.5" transform="rotate(43, 258, 166)" opacity="0.59"></rect><rect width="61" height="3" x="388.5" y="760.5" rx="1.5" transform="rotate(43, 419, 762)" opacity="0.34"></rect><rect width="64" height="3" x="618" y="122.5" rx="1.5" transform="rotate(43, 650, 124)" opacity="0.61"></rect><rect width="290" height="3" x="217" y="551.5" rx="1.5" transform="rotate(43, 362, 553)" opacity="0.21"></rect><rect width="150" height="3" x="547" y="679.5" rx="1.5" transform="rotate(43, 622, 681)" opacity="0.61"></rect><rect width="234" height="3" x="526" y="47.5" rx="1.5" transform="rotate(43, 643, 49)" opacity="0.25"></rect><rect width="65" height="3" x="634.5" y="536.5" rx="1.5" transform="rotate(43, 667, 538)" opacity="0.08"></rect><rect width="263" height="3" x="375.5" y="124.5" rx="1.5" transform="rotate(43, 507, 126)" opacity="0.91"></rect><rect width="169" height="3" x="659.5" y="41.5" rx="1.5" transform="rotate(43, 744, 43)" opacity="0.95"></rect></g></svg>